<svg xmlns="http://www.w3.org/2000/svg" xmlns:xlink="http://www.w3.org/1999/xlink" width="350" height="199" viewBox="0 0 350 199"><defs><path id="mnoaa" d="M625.19 490.37V294.06h347.75v196.31z"/><path id="mnoab" d="M897.79 392.8c.2 7.47-2.94 13.95-9.5 19.45-7.33 6.1-15.84 7.37-25.62 3.74-9.1-3.44-17.37-6-29.44-6-12.08 0-24.46 1.9-24.46 1.9 2.8-2.3 11.56-5.56 16.25-7.38 2.06-.8 4.2-1.5 5.83-2.2 2.1-.89 3.36-1.76 2.59-2.8-1.38-1.82-7.97-.06-9.84.45-4.3 1.28-8.3 2.54-17.87 6.6-8.1 3.45-18.28 4.95-27.96 5.44-9.49.39-17.82-2.76-22.22-7.18 8.87 2.14 13.5 3.84 23.03 2.06 1.86-.35 8.65-3.16 7.61-4.77-1.43-2.23-8.72 4.58-29.88-2.99-6.84-2.44-14.1-7.25-35.83-5.47-3.99.33-13.2 1.98-20.48-.2 14.57-5.73 26.3-8.58 32.47-9.75 11.54-2.36 20.39-1 26.36 1.29-2.52-4.33-9.24-7.83-9.24-7.83a37.2 37.2 0 0 1 12.13 3.73c4.09 2.18 12.6 10.35 25 13.65a62.35 62.35 0 0 0 23.93 1.98c4.87-.5 5.76-.58 8.47-1.07 3.6-.66 6.26-3.25 5.57-5.32-.7-2.07-3.38-3.07-6.4-2.35-3.01.73-11.93 6.04-25.2 3.32-13.28-2.71-19.75-14.16-31.92-16.73 13.78-2.2 21.92 5.9 31.56 8.66 6.71 1.93 17.44 1.5 23.3.24 2.37-.51 3.59-1.4 1.13-2.49-2.47-1.1-16.9-3.17-30-3.68 8.98-4.41 22.83-1.58 22.83-1.58-3.21-3.23-10.35-4.75-10.35-4.75 8.73-.86 17.42-.79 23.68 2.9 5.66 3.35 7.2 5.2 10.32 7.56.91.74 4.29 3.62 6.48.2 1.93-3.03-2.45-4.83-5.58-6a16.45 16.45 0 0 1-8.29-6.53c3.55.8 7.82 2.3 12.8 2.21 11.72-.2 24.99-3.37 24.99-3.37 11.05-2.06 19.76.2 26.12 6.88a25.8 25.8 0 0 1 7.63 18.18zm-4.21-.15c0-11.4-9.2-20.64-20.54-20.64a20.59 20.59 0 0 0-20.54 20.64c0 11.4 9.2 20.63 20.54 20.63a20.59 20.59 0 0 0 20.54-20.63zm-4.3 0c0 9-7.27 16.3-16.24 16.3-8.97 0-16.24-7.3-16.24-16.3s7.27-16.3 16.24-16.3c8.97 0 16.23 7.3 16.23 16.3zm-3.52.11a13.6 13.6 0 0 0-11.3-13.42c-.7.72-1.36 1.48-1.96 2.3a13.61 13.61 0 0 1 8.09 21.8 13.61 13.61 0 0 0 5.17-10.68z"/></defs><g><g transform="translate(-624 -293)"><use fill="#cedde1" xlink:href="#mnoaa"/></g><g opacity=".6" transform="translate(-624 -293)"><use fill="#b84e2b" xlink:href="#mnoab"/><use fill="#fff" xlink:href="#mnoab"/></g></g></svg>