<svg xmlns="http://www.w3.org/2000/svg" xmlns:xlink="http://www.w3.org/1999/xlink" width="37" height="13" viewBox="0 0 37 13"><defs><path id="bl5la" d="M1237.6 2113.62a4.16 4.16 0 0 1-1.66 3.4c-1.28 1.07-2.77 1.29-4.48.65-1.6-.6-3.04-1.04-5.15-1.04-2.12 0-4.28.33-4.28.33.49-.4 2.02-.98 2.84-1.3.36-.13.73-.26 1.02-.38.37-.15.59-.3.45-.49-.24-.32-1.4 0-1.72.08-.75.22-1.45.45-3.12 1.16-1.42.6-3.2.86-4.9.95a5.32 5.32 0 0 1-3.88-1.26c1.55.38 2.36.67 4.03.36.32-.06 1.5-.55 1.33-.83-.25-.4-1.53.8-5.23-.53-1.2-.42-2.47-1.27-6.27-.95-.7.05-2.3.34-3.58-.04 2.55-1 4.6-1.5 5.68-1.7a8.23 8.23 0 0 1 4.61.22 4.74 4.74 0 0 0-1.61-1.37c.61.09 1.4.27 2.12.65.71.39 2.2 1.81 4.37 2.4 1.14.3 2.4.52 4.19.34.85-.09 1-.1 1.48-.19.63-.11 1.1-.57.97-.93-.12-.36-.59-.54-1.12-.41-.52.13-2.08 1.06-4.4.58-2.33-.47-3.46-2.48-5.59-2.93 2.41-.38 3.83 1.03 5.52 1.52 1.17.34 3.05.26 4.08.04.41-.09.62-.24.2-.44-.44-.19-2.96-.55-5.25-.64 1.57-.77 4-.28 4-.28-.57-.56-1.82-.83-1.82-.83 1.53-.15 3.05-.13 4.14.51 1 .59 1.26.91 1.8 1.32.17.13.76.64 1.14.04.34-.53-.43-.85-.98-1.05-.58-.22-1.1-.6-1.44-1.14.62.14 1.36.4 2.24.38 2.04-.03 4.37-.59 4.37-.59 1.93-.36 3.45.04 4.56 1.2a4.51 4.51 0 0 1 1.34 3.19zm-.74-.03a3.6 3.6 0 1 0-7.2-.02 3.6 3.6 0 0 0 7.2.02zm-.75 0a2.85 2.85 0 1 1-5.7.01 2.85 2.85 0 0 1 5.7 0zm-.62.02c0-1.18-.85-2.16-1.97-2.35-.13.13-.24.26-.34.4a2.38 2.38 0 0 1 1.4 3.82c.56-.44.91-1.11.91-1.87z"/></defs><g><g transform="translate(-1202 -2107)"><use fill="#fff" xlink:href="#bl5la"/></g></g></svg>