<svg xmlns="http://www.w3.org/2000/svg" xmlns:xlink="http://www.w3.org/1999/xlink" width="179" height="22" viewBox="0 0 179 22"><defs><path id="ms5ka" d="M836.97 20.88l-3.22 8.94h-3.08l2.8-7.77c.15-.43-.07-.78-.5-.78h-3.07c-.42 0-.9.35-1.05.78l-2.8 7.77h-3.08l2.8-7.77c.16-.43-.06-.78-.49-.78h-3.85l-3.08 8.55h-3.08l4.06-11.27h15.78c1.5 0 2.32 1.04 1.86 2.33zm22.4-2.33h3.07l-3.5 9.72c-.31.85-1.42 1.55-2.49 1.55h-6.92c-1.5 0-2.32-1.04-1.86-2.33l3.22-8.94h3.08l-2.8 7.77c-.15.43.07.78.5.78h3.84c.43 0 .9-.35 1.05-.78zm-53.5 8.55h8.46l-.98 2.72h-9.62c-1.5 0-2.32-1.04-1.86-2.33l2.66-7.39c.31-.86 1.43-1.55 2.49-1.55h7.7c1.48 0 2.31 1.04 1.85 2.33l-.7 1.94-.98 2.72h-9.24l-.28.78c-.15.43.07.78.5.78zm.76-4.28h6.16l.28-.77c.15-.43-.06-.78-.49-.78h-4.62c-.42 0-.9.35-1.05.78zm79.67-4.27h3.08l-4.06 11.27h-3.08l1.54-4.28h-5.39l-1.54 4.28h-3.08l4.07-11.27h3.08l-1.55 4.27h5.4zm-44.64 0h7.31l-.98 2.72h-5.39c-.42 0-.9.35-1.05.78l-2.8 7.77h-3.08l3.5-9.72c.31-.86 1.42-1.55 2.49-1.55zm-48.11 0h9.62l-.98 2.72h-7.7c-.42 0-.9.35-1.05.78-.15.42.07.77.5.77h5c1.48 0 2.31 1.05 1.85 2.34l-1.12 3.1c-.31.86-1.42 1.56-2.49 1.56h-9.62l.98-2.72h7.7c.42 0 .9-.35 1.05-.78.15-.43-.07-.78-.5-.78h-5c-1.48 0-2.31-1.04-1.85-2.33l1.12-3.1c.31-.87 1.42-1.56 2.49-1.56zm72.74 0h9.62l-.98 2.72h-7.7c-.42 0-.9.35-1.05.78-.15.42.07.77.5.77h5c1.48 0 2.31 1.05 1.85 2.34l-1.12 3.1c-.31.86-1.42 1.56-2.48 1.56h-9.63l.98-2.72h7.7c.43 0 .9-.35 1.05-.78.16-.43-.06-.78-.49-.78h-5c-1.49 0-2.32-1.04-1.86-2.33l1.13-3.1c.3-.87 1.42-1.56 2.48-1.56zm-85.26 5.73c.07 2.59-1.01 4.83-3.27 6.73-2.52 2.11-5.45 2.55-8.81 1.3-3.13-1.2-5.97-2.08-10.13-2.08-4.15 0-8.4.66-8.4.66.95-.8 3.97-1.93 5.58-2.56.7-.27 1.44-.51 2-.75.73-.31 1.16-.62.9-.97-.48-.63-2.75-.03-3.39.15a49.9 49.9 0 0 0-6.14 2.29c-2.8 1.19-6.3 1.7-9.62 1.87-3.26.14-6.13-.95-7.64-2.48 3.05.74 4.64 1.33 7.92.71.64-.12 2.97-1.09 2.62-1.64-.5-.78-3 1.58-10.28-1.04-2.35-.85-4.85-2.5-12.33-1.9-1.37.12-4.53.7-7.04-.06a64.7 64.7 0 0 1 11.17-3.37c3.97-.82 7.01-.35 9.06.44-.86-1.5-3.17-2.7-3.17-2.7 1.2.17 2.77.53 4.17 1.29 1.4.75 4.33 3.57 8.6 4.72 2.24.6 4.73 1.04 8.23.68 1.67-.17 1.98-.2 2.91-.37 1.24-.23 2.16-1.12 1.92-1.84-.25-.71-1.16-1.06-2.2-.81-1.04.25-4.1 2.09-8.67 1.15s-6.8-4.9-10.98-5.8c4.74-.75 7.54 2.05 10.86 3 2.3.67 6 .52 8 .09.82-.18 1.24-.48.4-.86-.85-.38-5.82-1.1-10.32-1.28 3.09-1.52 7.85-.54 7.85-.54-1.1-1.12-3.56-1.64-3.56-1.64 3-.3 6-.28 8.14 1 1.95 1.16 2.48 1.8 3.56 2.61.3.26 1.47 1.25 2.22.07.67-1.05-.84-1.67-1.92-2.07a5.66 5.66 0 0 1-2.85-2.26c1.23.27 2.7.8 4.4.76 4.04-.07 8.6-1.16 8.6-1.16 3.8-.71 6.8.07 8.98 2.38a8.95 8.95 0 0 1 2.63 6.28zm-1.45-.05a7.1 7.1 0 0 0-7.06-7.13 7.1 7.1 0 0 0-7.07 7.13 7.1 7.1 0 0 0 7.07 7.14 7.1 7.1 0 0 0 7.06-7.14zm-1.48 0c0 3.12-2.5 5.64-5.58 5.64a5.61 5.61 0 0 1-5.59-5.64c0-3.11 2.5-5.64 5.59-5.64a5.61 5.61 0 0 1 5.58 5.64zm-1.21.04a4.7 4.7 0 0 0-3.88-4.64c-.25.25-.47.51-.68.8a4.7 4.7 0 0 1 2.78 7.54 4.72 4.72 0 0 0 1.78-3.7z"/></defs><g><g transform="translate(-712 -13)"><use fill="#fff" xlink:href="#ms5ka"/></g></g></svg>