<svg xmlns="http://www.w3.org/2000/svg" xmlns:xlink="http://www.w3.org/1999/xlink" width="16" height="13" viewBox="0 0 16 13"><defs><path id="8ikca" d="M339 1359.31c0-.05 0-.1-.02-.14a.48.48 0 0 0-.46-.32h-3.87l-1.2-3.53a.48.48 0 0 0-.45-.32c-.2 0-.4.13-.46.32l-1.2 3.53h-3.86c-.2 0-.4.13-.46.32a.46.46 0 0 0 .18.52l3.13 2.18-1.2 3.52c-.06.2 0 .4.18.52a.5.5 0 0 0 .56 0l3.13-2.18 3.13 2.18a.5.5 0 0 0 .57 0 .45.45 0 0 0 .17-.52l-1.2-3.52 3.13-2.18c.13-.1.2-.23.2-.38z"/></defs><g><g transform="translate(-325 -1354)"><use fill="#98aaaf" xlink:href="#8ikca"/></g></g></svg>